<?xml version="1.0" encoding="UTF-8"?>
<svg xmlns="http://www.w3.org/2000/svg" xmlns:xlink="http://www.w3.org/1999/xlink" width="15px" height="15px" viewBox="0 0 15 15" version="1.1">
<g id="surface1">
<rect x="0" y="0" width="15" height="15" style="fill:rgb(100%,100%,100%);fill-opacity:1;stroke:none;"/>
<path style=" stroke:none;fill-rule:nonzero;fill:rgb(0%,0%,0%);fill-opacity:1;" d="M 6.726562 12.570312 C 6.347656 12.953125 5.730469 12.953125 5.351562 12.570312 L 0.96875 8.1875 C 0.585938 7.808594 0.585938 7.191406 0.96875 6.8125 L 5.351562 2.429688 C 5.730469 2.046875 6.347656 2.046875 6.726562 2.429688 C 7.109375 2.808594 7.109375 3.425781 6.726562 3.804688 L 4.089844 6.527344 L 13.34375 6.527344 C 13.882812 6.527344 14.316406 6.960938 14.316406 7.5 C 14.316406 8.039062 13.882812 8.472656 13.34375 8.472656 L 4.089844 8.472656 L 6.726562 11.195312 C 7.109375 11.574219 7.109375 12.191406 6.726562 12.570312 Z M 6.726562 12.570312 "/>
</g>
</svg>
